<svg id="Capa_1" enable-background="new 0 0 512 512" height="512" viewBox="0 0 512 512" width="512" xmlns="http://www.w3.org/2000/svg"><g><path d="m188.5 130h-135c-28.949 0-52.5 23.551-52.5 52.5v134.5c0 10.339 8.411 18.75 18.75 18.75s18.75-8.411 18.75-18.75v-134.5h30v329.5h37.5v-195.5h30v195.5h37.5s0-194.981 0-195v-134.5h30v134.51c.005 10.334 8.414 18.74 18.75 18.74 10.339 0 18.75-8.411 18.75-18.75v-134.5c0-28.949-23.551-52.5-52.5-52.5z"/><path d="m71 0h100v100h-100z"/><path d="m458.5 130h-135c-28.949 0-52.5 23.551-52.5 52.5v134.5c0 10.339 8.411 18.75 18.75 18.75s18.75-8.411 18.75-18.75v-134.5h30v329.5h37.5v-195.5h30v195.5h37.5s0-194.981 0-195v-134.5h30v134.51c.005 10.334 8.414 18.74 18.75 18.74 10.339 0 18.75-8.411 18.75-18.75v-134.5c0-28.949-23.552-52.5-52.5-52.5z"/><circle cx="391" cy="50" r="50"/></g></svg>